<!-- Generator: Adobe Illustrator 19.0.0, SVG Export Plug-In  -->
<svg version="1.1"
	 xmlns="http://www.w3.org/2000/svg" xmlns:xlink="http://www.w3.org/1999/xlink" xmlns:a="http://ns.adobe.com/AdobeSVGViewerExtensions/3.0/"
	 x="0px" y="0px" width="733.1px" height="777.4px" viewBox="0 0 733.1 777.4" style="enable-background:new 0 0 733.1 777.4;"
	 xml:space="preserve">
<style type="text/css">
	.st0{fill:#F88827;}
</style>
<defs>
</defs>
<g>
	<path class="st0" d="M594.3,440.8v249.2c0,10.2-8.3,18.5-18.5,18.5H90.8c-10.1,0-18.5-8.3-18.5-18.5V99.6
		c0-10.2,8.3-18.5,18.5-18.5h361.1c22.4,0,40.6-18.2,40.6-40.6c0-22.4-18.1-40.6-40.6-40.6H99.6C44.7,0,0,44.7,0,99.6v578.1
		c0,54.9,44.7,99.6,99.6,99.6h476.2c54.9,0,99.6-44.7,99.6-99.6V440.8c0-22.4-18.2-40.6-40.6-40.6
		C612.5,400.2,594.3,418.4,594.3,440.8L594.3,440.8z M594.3,440.8"/>
	<path class="st0" d="M717,27.6c-17.9-13.6-43.4-9.9-56.8,8L360,433.6l-143-98.1c-18.5-12.6-43.7-7.9-56.4,10.6
		c-12.7,18.5-8,43.7,10.5,56.4l175,120c2.2,1.5,4.5,2.3,6.9,3.3c1.3,0.6,2.5,1.4,3.9,1.9c4,1.3,8.1,1.9,12.2,1.9
		c5.9,0,11.7-1.5,17.1-3.9c0.3-0.2,0.7-0.2,1-0.4c5.2-2.6,9.7-6.4,13.4-11.1c0.3-0.3,0.7-0.4,0.9-0.7L724.9,84.4
		C738.4,66.5,734.9,41.1,717,27.6"/>
</g>
</svg>