<!-- Generator: Adobe Illustrator 19.0.0, SVG Export Plug-In  -->
<svg version="1.1"
	 xmlns="http://www.w3.org/2000/svg" xmlns:xlink="http://www.w3.org/1999/xlink" xmlns:a="http://ns.adobe.com/AdobeSVGViewerExtensions/3.0/"
	 x="0px" y="0px" width="175.629px" height="116.094px" viewBox="0 0 175.629 116.094" enable-background="new 0 0 175.629 116.094"
	 xml:space="preserve">
<defs>
</defs>
<g>
	<g transform="scale(0.1953125, 0.1953125)">
		<path fill="#FFFFFF" d="M445.513,594.398C169.726,594.398,0,297.197,0,297.197C0,297.196,171.346,0,445.513,0
			c259.546,0,453.705,297.197,453.705,297.197C899.219,297.196,703.438,594.398,445.513,594.398L445.513,594.398z M447.913,163.979
			c-75.093,0-135.933,59.794-135.933,133.533c0,73.789,60.84,133.583,135.933,133.583c75.152,0,135.99-59.794,135.99-133.583
			C583.903,223.773,523.066,163.979,447.913,163.979L447.913,163.979z M448.752,363.73c-37.393,0-67.68-29.765-67.68-66.48
			c0-36.709,30.288-66.48,67.68-66.48c37.39,0,67.679,29.771,67.679,66.48C516.431,333.965,486.143,363.73,448.752,363.73
			L448.752,363.73z"/>
	</g>
</g>
</svg>