<?xml version="1.0" encoding="utf-8"?>
<!-- Generator: Adobe Illustrator 19.0.0, SVG Export Plug-In . SVG Version: 6.00 Build 0)  -->
<svg version="1.1" id="图层_1" xmlns="http://www.w3.org/2000/svg" xmlns:xlink="http://www.w3.org/1999/xlink" x="0px" y="0px"
	 viewBox="0 0 238.503 163.924" enable-background="new 0 0 238.503 163.924" xml:space="preserve">
<path fill="none" stroke="#E8E7E6" stroke-width="14" stroke-miterlimit="10" d="M119.426-18.108
	c-43.701,0-79.256,35.078-79.256,78.185c0,41.609,71.022,115.496,74.04,118.617c1.359,1.41,3.25,2.198,5.217,2.198h0.16
	c2.023,0,3.936-0.933,5.262-2.431l24.594-27.784c32.676-39.486,49.24-69.967,49.24-90.599
	C198.683,16.971,163.129-18.108,119.426-18.108L119.426-18.108L119.426-18.108z M119.426,95.611
	c-19.902,0-36.025-15.901-36.025-35.534c0-19.632,16.122-35.545,36.025-35.545s36.025,15.913,36.025,35.545
	C155.451,79.71,139.329,95.611,119.426,95.611L119.426,95.611L119.426,95.611z M119.426,95.611"/>
</svg>
