<?xml version="1.0" encoding="utf-8"?>
<!-- Generator: Adobe Illustrator 19.0.0, SVG Export Plug-In . SVG Version: 6.00 Build 0)  -->
<svg version="1.1" id="图层_1" xmlns="http://www.w3.org/2000/svg" xmlns:xlink="http://www.w3.org/1999/xlink" x="0px" y="0px"
	 viewBox="0 0 238.503 163.924" enable-background="new 0 0 238.503 163.924" xml:space="preserve">
<g>
	<path fill-rule="evenodd" clip-rule="evenodd" fill="#E37B32" d="M166.818-5.738H21.166c-9.916,0-17.982,8.067-17.982,17.982
		v173.717c0,9.915,8.067,17.982,17.982,17.982h145.652c9.915,0,17.982-8.067,17.982-17.982V12.244
		C184.8,2.329,176.734-5.738,166.818-5.738z"/>
	<path fill-rule="evenodd" clip-rule="evenodd" fill="#E37B32" d="M217.944-41.056H77.67c-9.915,0-17.982,8.067-17.982,17.982v2.559
		h107.13c18.064,0,32.76,14.696,32.76,32.76V162.48h18.367c9.915,0,17.982-8.067,17.982-17.982V-23.074
		C235.927-32.99,227.86-41.056,217.944-41.056z"/>
</g>
</svg>
