<?xml version="1.0" encoding="utf-8"?>
<!-- Generator: Adobe Illustrator 19.0.0, SVG Export Plug-In . SVG Version: 6.00 Build 0)  -->
<svg version="1.1" id="图层_1" xmlns="http://www.w3.org/2000/svg" xmlns:xlink="http://www.w3.org/1999/xlink" x="0px" y="0px"
	 viewBox="0 0 238.503 163.924" enable-background="new 0 0 238.503 163.924" xml:space="preserve">
<g>
	<g id="XMLID_58_">
		<path id="XMLID_59_" fill="#ED832B" d="M124.625,152.327c-19.197,0-37.25-7.331-50.834-20.641
			C60.177,118.347,52.68,100.604,52.68,81.727c0-18.864,7.497-36.597,21.111-49.931c13.586-13.308,31.639-20.637,50.834-20.637
			c23.119,0,44.958,10.994,58.418,29.41l3.149,4.309l-52.636,36.976l51.569,38.46l-3.278,4.219
			c-6.679,8.597-15.433,15.677-25.316,20.473C146.662,149.795,135.629,152.327,124.625,152.327z M124.625,21.635
			c-33.894,0-61.469,26.957-61.469,60.092c0,33.152,27.575,60.124,61.469,60.124c17.284,0,33.913-7.27,45.479-19.671L115.693,81.6
			l55.547-39.021C159.649,29.378,142.595,21.635,124.625,21.635z M135.68,58.629c-7.679,0-13.926-6.168-13.926-13.75
			s6.247-13.75,13.926-13.75c7.678,0,13.925,6.168,13.925,13.75S143.358,58.629,135.68,58.629z M135.68,41.605
			c-1.902,0-3.45,1.469-3.45,3.274c0,1.806,1.548,3.274,3.45,3.274c1.902,0,3.449-1.469,3.449-3.274
			C139.129,43.073,137.581,41.605,135.68,41.605z"/>
	</g>
</g>
</svg>
