<?xml version="1.0" encoding="utf-8"?>
<!-- Generator: Adobe Illustrator 19.0.0, SVG Export Plug-In . SVG Version: 6.00 Build 0)  -->
<svg version="1.1" id="图层_1" xmlns="http://www.w3.org/2000/svg" xmlns:xlink="http://www.w3.org/1999/xlink" x="0px" y="0px"
	 viewBox="0 0 238.503 163.924" enable-background="new 0 0 238.503 163.924" xml:space="preserve">
<path fill-rule="evenodd" clip-rule="evenodd" fill="#E37B32" d="M95.301,77.278H28.642c-9.941,0-18-8.059-18-18v-67.94
	c0-9.941,8.059-18,18-18h66.659c9.941,0,18,8.059,18,18v67.94C113.301,69.219,105.242,77.278,95.301,77.278z"/>
<path fill-rule="evenodd" clip-rule="evenodd" fill="#E37B32" d="M211.3-26.661h-69.504c-9.155,0-16.577,7.422-16.577,16.577v70.785
	c0,9.155,7.422,16.577,16.577,16.577H211.3c9.155,0,16.577-7.422,16.577-16.577v-70.785C227.877-19.239,220.455-26.661,211.3-26.661
	z M218.346,51.051c0,9.155-7.422,16.577-16.577,16.577h-50.442c-9.155,0-16.577-7.422-16.577-16.577V-0.434
	c0-9.155,7.422-16.577,16.577-16.577h50.442c9.155,0,16.577,7.422,16.577,16.577V51.051z"/>
<path fill-rule="evenodd" clip-rule="evenodd" fill="#E37B32" d="M209.877,190.338h-66.659c-9.941,0-18-8.059-18-18v-67.94
	c0-9.941,8.059-18,18-18h66.659c9.941,0,18,8.059,18,18v67.94C227.877,182.28,219.818,190.338,209.877,190.338z"/>
<path fill-rule="evenodd" clip-rule="evenodd" fill="#E37B32" d="M95.301,190.338H28.642c-9.941,0-18-8.059-18-18v-67.94
	c0-9.941,8.059-18,18-18h66.659c9.941,0,18,8.059,18,18v67.94C113.301,182.28,105.242,190.338,95.301,190.338z"/>
</svg>
