<?xml version="1.0" encoding="utf-8"?>
<!-- Generator: Adobe Illustrator 19.0.0, SVG Export Plug-In . SVG Version: 6.00 Build 0)  -->
<svg version="1.1" id="图层_1" xmlns="http://www.w3.org/2000/svg" xmlns:xlink="http://www.w3.org/1999/xlink" x="0px" y="0px"
	 viewBox="0 0 238.503 163.924" enable-background="new 0 0 238.503 163.924" xml:space="preserve">
<path fill-rule="evenodd" clip-rule="evenodd" fill="none" stroke="#EAEAEA" stroke-width="14" stroke-miterlimit="10" d="
	M219.161-5.433c-0.046-2.957-2.314-5.39-5.253-5.638l-78.862-6.814c-1.644-0.221-3.232,0.413-4.426,1.524L26.753,80.491
	c-5.005,4.683-8.017,11.001-8.439,17.805c-0.45,6.961,1.846,13.517,6.465,18.467l53.674,57.576
	c4.601,4.913,11.203,7.732,18.136,7.732c6.74,0,13.205-2.562,18.191-7.209l103.867-96.851c1.194-1.102,1.837-2.672,1.818-4.289
	L219.161-5.433z M188.977,28.627c-1.561,1.46-3.701,2.25-5.803,2.14c-2.103-0.101-4.16-1.102-5.574-2.709
	c-1.414-1.607-2.176-3.802-2.075-5.969c0.101-2.177,1.074-4.279,2.635-5.739c1.561-1.46,3.701-2.25,5.803-2.14
	c2.103,0.101,4.16,1.102,5.574,2.709c1.414,1.607,2.177,3.802,2.075,5.969C191.512,25.054,190.538,27.166,188.977,28.627z"/>
</svg>
