<?xml version="1.0" encoding="utf-8"?>
<!-- Generator: Adobe Illustrator 19.0.0, SVG Export Plug-In . SVG Version: 6.00 Build 0)  -->
<svg version="1.1" id="图层_1" xmlns="http://www.w3.org/2000/svg" xmlns:xlink="http://www.w3.org/1999/xlink" x="0px" y="0px"
	 viewBox="0 0 238.503 163.924" enable-background="new 0 0 238.503 163.924" xml:space="preserve">
<g>
	<path fill-rule="evenodd" clip-rule="evenodd" fill="#E37B32" d="M119.7-42.731c-69.036,0-125,55.964-125,125s55.964,125,125,125
		s125-55.964,125-125S188.735-42.731,119.7-42.731L119.7-42.731z M122.594,152.878v0.162c-0.973,0-1.934-0.058-2.9-0.081
		c-0.966,0.023-1.921,0.081-2.888,0.081v-0.157c-8.178-0.341-16.212-1.395-23.799-3.357c-13.613,2.929-24.61,14.158-33.841,6.691
		c-8.803-7.119-3.184-17.688-3.531-29.57c-8.745-11.054-14.071-26.04-14.071-45.955c0-51.871,35.89-70.554,75.242-72.186V8.344
		c0.966,0,1.927,0.058,2.894,0.081c0.966-0.023,1.927-0.081,2.894-0.081v0.162c39.351,1.632,75.241,20.315,75.241,72.186
		C197.836,132.557,161.945,151.245,122.594,152.878L122.594,152.878z M154.785,71.867h-8.576c-1.221,0-2.263,0.882-2.465,2.085
		l-2.539,15.146c-0.255,1.524,0.92,2.912,2.465,2.912h11.002c3.791,0,6.865,3.073,6.865,6.865l0,0c0,3.791-3.074,6.865-6.865,6.865
		h-14.087c-1.223,0-2.266,0.884-2.465,2.09l-2.17,13.089c-0.479,2.89-3.169,4.876-6.073,4.483l-0.055-0.008
		c-3.03-0.41-5.12-3.244-4.618-6.26l1.748-10.486c0.254-1.523-0.921-2.909-2.465-2.909h-18.001c-1.223,0-2.265,0.884-2.465,2.09
		l-2.17,13.089c-0.479,2.89-3.169,4.876-6.073,4.483l-0.087-0.012c-3.018-0.408-5.106-3.223-4.623-6.229l1.692-10.527
		c0.244-1.519-0.929-2.895-2.467-2.895h-5.395c-3.791,0-6.865-3.073-6.865-6.865l0,0c0-3.791,3.073-6.865,6.865-6.865h8.475
		c1.216,0,2.255-0.875,2.463-2.072l2.623-15.146c0.264-1.528-0.912-2.925-2.463-2.925H84.899c-3.791,0-6.865-3.073-6.865-6.865l0,0
		c0-3.791,3.073-6.865,6.865-6.865h14.096c1.218,0,2.259-0.879,2.464-2.08l2.236-13.125c0.498-2.925,3.256-4.905,6.187-4.442l0,0
		c2.976,0.47,4.997,3.277,4.499,6.248l-1.753,10.453c-0.259,1.542,0.93,2.946,2.493,2.946h18.075c1.224,0,2.267-0.885,2.466-2.092
		l2.156-13.079c0.484-2.939,3.249-4.936,6.191-4.471l0.034,0.005c2.952,0.466,4.969,3.233,4.509,6.186l-1.645,10.568
		c-0.236,1.515,0.936,2.883,2.469,2.883h5.41c3.791,0,6.865,3.073,6.865,6.865l0,0C161.649,68.793,158.576,71.867,154.785,71.867
		L154.785,71.867z M130.112,71.867H112.11c-1.22,0-2.262,0.882-2.465,2.085l-2.538,15.146c-0.255,1.524,0.92,2.912,2.465,2.912
		h18.003c1.221,0,2.262-0.882,2.465-2.086l2.538-15.146C132.832,73.255,131.657,71.867,130.112,71.867L130.112,71.867z"/>
</g>
</svg>
