<!-- Generator: Adobe Illustrator 19.0.0, SVG Export Plug-In  -->
<svg version="1.1"
	 xmlns="http://www.w3.org/2000/svg" xmlns:xlink="http://www.w3.org/1999/xlink" xmlns:a="http://ns.adobe.com/AdobeSVGViewerExtensions/3.0/"
	 x="0px" y="0px" width="680.8px" height="724.2px" viewBox="0 0 680.8 724.2" style="enable-background:new 0 0 680.8 724.2;"
	 xml:space="preserve">
<style type="text/css">
	.st0{fill:none;stroke:#F78625;stroke-width:39;stroke-miterlimit:10;}
</style>
<defs>
</defs>
<g>
	<g>
		<path class="st0" d="M653.3,162.4C587.7,72.6,481.9,19.5,369.2,19.5C176.1,19.5,19.5,172.9,19.5,362
			c0,189.2,156.6,342.7,349.7,342.7c109.1,0,212.2-50,278.3-135.1L369.2,362L653.3,162.4L653.3,162.4z M427.2,124.2
			c25.2,0,45.5,20,45.5,44.6c0,24.6-20.4,44.6-45.5,44.6c-25.2,0-45.5-20-45.5-44.6C381.6,144.2,402,124.2,427.2,124.2L427.2,124.2z
			 M427.2,124.2"/>
	</g>
</g>
</svg>