<!-- Generator: Adobe Illustrator 19.0.0, SVG Export Plug-In  -->
<svg version="1.1"
	 xmlns="http://www.w3.org/2000/svg" xmlns:xlink="http://www.w3.org/1999/xlink" xmlns:a="http://ns.adobe.com/AdobeSVGViewerExtensions/3.0/"
	 x="0px" y="0px" width="670.8px" height="725.2px" viewBox="0 0 670.8 725.2" style="enable-background:new 0 0 670.8 725.2;"
	 xml:space="preserve">
<style type="text/css">
	.st0{fill:#FB940B;}
</style>
<defs>
</defs>
<g>
	<g>
		<path class="st0" d="M670.8,151.3C601.4,56.2,489.4,0,370.1,0C165.7,0,0,162.4,0,362.5c0,200.3,165.7,362.7,370.1,362.7
			c115.5,0,224.6-52.9,294.6-143L370.1,362.5L670.8,151.3L670.8,151.3z M431.5,110.8c26.6,0,48.2,21.1,48.2,47.2
			c0,26.1-21.6,47.2-48.2,47.2c-26.6,0-48.2-21.1-48.2-47.2C383.3,132,404.9,110.8,431.5,110.8L431.5,110.8z M431.5,110.8"/>
	</g>
</g>
</svg>