<!-- Generator: Adobe Illustrator 19.0.0, SVG Export Plug-In  -->
<svg version="1.1"
	 xmlns="http://www.w3.org/2000/svg" xmlns:xlink="http://www.w3.org/1999/xlink" xmlns:a="http://ns.adobe.com/AdobeSVGViewerExtensions/3.0/"
	 x="0px" y="0px" width="800.4px" height="800.4px" viewBox="0 0 800.4 800.4" style="enable-background:new 0 0 800.4 800.4;"
	 xml:space="preserve">
<style type="text/css">
	.st0{fill:#666666;}
</style>
<defs>
</defs>
<g>
	<path class="st0" d="M400.2,0C179.2,0,0,179.2,0,400.2c0,221,179.2,400.2,400.2,400.2c221,0,400.2-179.2,400.2-400.2
		C800.4,179.2,621.2,0,400.2,0L400.2,0z M400.2,781.5c-210.3,0-381.4-171.1-381.4-381.4c0-210.3,171.1-381.4,381.4-381.4
		c210.3,0,381.4,171.1,381.4,381.4C781.5,610.5,610.5,781.5,400.2,781.5L400.2,781.5z M400.2,781.5"/>
	<path class="st0" d="M174.8,336.8c0,12.8,5.3,25.5,14.3,34.6c9.1,9.1,21.8,14.3,34.6,14.3c12.8,0,25.5-5.3,34.6-14.3
		c9.1-9.1,14.3-21.8,14.3-34.6c0-12.8-5.3-25.6-14.3-34.6c-9.1-9.1-21.8-14.3-34.6-14.3c-12.8,0-25.6,5.3-34.6,14.3
		C180.1,311.3,174.8,324,174.8,336.8L174.8,336.8z M174.8,336.8"/>
	<path class="st0" d="M527.3,331.9c0,12.9,5.3,25.8,14.5,35c9.1,9.1,22,14.5,34.9,14.5c12.9,0,25.8-5.3,35-14.5
		c9.2-9.2,14.5-22,14.5-35c0-12.9-5.3-25.8-14.5-35c-9.1-9.1-22-14.5-35-14.5c-12.9,0-25.8,5.3-34.9,14.5
		C532.6,306.1,527.3,319,527.3,331.9L527.3,331.9z M527.3,331.9"/>
	<path class="st0" d="M301.3,215.5c-3.6-9.1-13.6-13.7-22.5-10.2l-120.2,47.1c-8.9,3.5-13.1,13.7-9.6,22.7l3.2,8.2
		c3.6,9.1,13.6,13.7,22.5,10.2l120.2-47.1c8.9-3.5,13.1-13.7,9.6-22.8L301.3,215.5L301.3,215.5z M301.3,215.5"/>
	<path class="st0" d="M649.3,249.2l-122.3-41.4c-9-3-18.9,2-22,11.2l-2.8,8.4c-3.1,9.3,1.6,19.2,10.6,22.3l122.3,41.4
		c9,3.1,18.8-2,22-11.2l2.8-8.4C663.1,262.2,658.3,252.2,649.3,249.2L649.3,249.2z M649.3,249.2"/>
	<path class="st0" d="M544.8,518.7c-4.9-7.1-14.5-9-21.4-4.3l-94.2,64.8c-6.9,4.8-8.6,14.4-3.7,21.6l4.4,6.4
		c4.9,7.1,14.5,9,21.4,4.3l94.2-64.8c6.9-4.8,8.6-14.4,3.7-21.6L544.8,518.7L544.8,518.7z M544.8,518.7"/>
</g>
</svg>
