<!-- Generator: Adobe Illustrator 19.0.0, SVG Export Plug-In  -->
<svg version="1.1"
	 xmlns="http://www.w3.org/2000/svg" xmlns:xlink="http://www.w3.org/1999/xlink" xmlns:a="http://ns.adobe.com/AdobeSVGViewerExtensions/3.0/"
	 x="0px" y="0px" width="208.1px" height="165.8px" viewBox="0 0 208.1 165.8" style="enable-background:new 0 0 208.1 165.8;"
	 xml:space="preserve">
<style type="text/css">
	.st0{opacity:0.32;}
	.st1{fill:#ee7e2e;}
</style>
<defs>
</defs>
<g id="XMLID_15_">
	<g id="XMLID_17_">
		<g id="XMLID_30_" class="st0">
			<path id="XMLID_32_" class="st1" d="M132.4,139.3c-4.2-3.6-11.9-11.4-18.3-16.4c-1.7-1-5.1-4.5-26.4-15.9
				C68,97,33.1,97.1,33.1,117.2c0.8,7.3,7.1,13.5,14.1,12c13.8-3.9,36.2-16.1,58.2-2.9c5.6,3.7,17.3,10.1,28.3,21.4
				C137.6,150,138.2,146.4,132.4,139.3z"/>
		</g>
		<g id="XMLID_26_">
			<path id="XMLID_28_" class="st1" d="M158.9,0c4.5,1.1-1.9,4.3-0.9,7.1c1.3,4.7,14.3,1.9,29.5,1.4c16.8-0.9,21.9,8.7,20.2,28.3
				c-1.9,23.3-4.5,32.6-8.4,56.8c-3.7-3.2-7.3-6-11.1-6.9c1.1-6.2,1.7-10.4,3.4-25.6c1.7-20.7,0-37.4-17.3-39
				c-10.1-0.7-24.2-0.9-37.1,3.2c-9.5,3.9-21-10.1-16.5-9.4C135.9,13.6,157.7,1.7,158.9,0z"/>
		</g>
		<g id="XMLID_22_">
			<path id="XMLID_24_" class="st1" d="M48.7,3.8c3.2,4.2,1.9,7-5.5,6.1c-6.7-0.4-21.4-1.5-26-0.5C3.1,11.6-2.1,27.1,0.8,50.6
				c2.5,17.8,6.8,53.6,11.6,74.8c7.5,33.3,16.1,50,53.8,34.8c15.6-5.9,23.1-12.1,36.3-21.8c2-1.3,2.2-0.2,3.8,0.1
				c1.7-0.9-10.8-11.9-9.2-9.4c1.4,2.1-15.8,13.5-36.4,15.5c-18.3,1.5-29.7-9.6-34.3-25.4c-5.1-18.5-7.9-48-7.9-48
				C18,52.7,13.1,25.8,42.7,23.8c19.9-1.5,30.9,1.4,37.8,0.2c1.6-1.6,9.2-6.8,6.2-8C77,14.9,55.4,5.3,48.4,0C48,1,47.7,2.7,48.7,3.8
				z"/>
		</g>
		<g id="XMLID_20_">
			<path id="XMLID_21_" class="st1" d="M117.1,113.6c9.2-6.3,73.2-40.1,78.8-13.2c1.1,4.5,0.2,10.7-3,9.4
				c-22.7-8.9-49-2.5-67.8,10.5L117.1,113.6z"/>
		</g>
		<g id="XMLID_18_">
			<path id="XMLID_19_" class="st1" d="M183.1,114.1c-2.8,10.6-5.2,15.3-7.6,20.8c-3,6.2-8.7,16.4-26.2,9.7
				c-17.8-8.1-34.3-29.9-54.1-41.2c-19.8-11.7-56.7-19.4-57.8,1.3c-0.2,4.6,2.4,13.1,12,12.1c13.8-4.6,32.7-9.6,55.4,4
				c20.2,14.1,19.8,23.4,40.3,39c6.4,5.8,35.3,13.1,41-9.4c1.5-4.9,8-31.6,8-31.6c0.8,0,1.4-1,1.1-1.2
				C192.1,116.7,181.2,110.2,183.1,114.1z"/>
		</g>
	</g>
</g>
</svg>
